<svg width="46" height="46" viewBox="0 0 46 46" fill="none" xmlns="http://www.w3.org/2000/svg">
<circle cx="23" cy="23" r="22" fill="#518B53" stroke="#A89D3C" stroke-width="2"/>
<path d="M23.2188 27.6875C23.2188 28.6667 23.0417 29.5573 22.6875 30.3594C22.3333 31.1615 21.8438 31.8542 21.2188 32.4375C20.6042 33.0104 19.8802 33.4583 19.0469 33.7812C18.2135 34.0938 17.3229 34.25 16.375 34.25C15.1458 34.25 13.9219 34.2292 12.7031 34.1875C11.4844 34.1458 10.2708 34.0938 9.0625 34.0312L9.25 31L11.0312 31.0625L11 14.5312L9.21875 14.625L9 11.5938C10.0521 11.4792 11.1094 11.4062 12.1719 11.375C13.2344 11.3333 14.3021 11.3125 15.375 11.3125C16.3542 11.3125 17.2552 11.4635 18.0781 11.7656C18.901 12.0677 19.6042 12.5052 20.1875 13.0781C20.7812 13.6406 21.2396 14.3281 21.5625 15.1406C21.8958 15.9531 22.0625 16.8646 22.0625 17.875C22.0625 18.8333 21.849 19.6719 21.4219 20.3906C20.9948 21.099 20.375 21.6979 19.5625 22.1875C20.7396 22.7083 21.6406 23.4323 22.2656 24.3594C22.901 25.276 23.2188 26.3854 23.2188 27.6875ZM19.1875 17.7812C19.1875 16.6667 18.875 15.8021 18.25 15.1875C17.6354 14.5625 16.7708 14.25 15.6562 14.25C15.5729 14.25 15.4375 14.25 15.25 14.25C15.0625 14.25 14.8698 14.2552 14.6719 14.2656C14.474 14.2656 14.2917 14.2708 14.125 14.2812C13.9688 14.2917 13.875 14.3021 13.8438 14.3125L13.7812 21.0625C13.9583 21.0833 14.1302 21.0938 14.2969 21.0938C14.4635 21.0938 14.6354 21.0938 14.8125 21.0938H15.9062C16.9271 21.0729 17.7292 20.776 18.3125 20.2031C18.8958 19.6302 19.1875 18.8229 19.1875 17.7812ZM20.3125 27.625C20.3125 26.9896 20.2292 26.4583 20.0625 26.0312C19.9062 25.5938 19.6875 25.2396 19.4062 24.9688C19.125 24.6875 18.7917 24.474 18.4062 24.3281C18.0208 24.1823 17.6042 24.0781 17.1562 24.0156C16.7188 23.9427 16.2604 23.9062 15.7812 23.9062C15.3021 23.8958 14.8229 23.8958 14.3438 23.9062H13.8125L13.875 31.2812C14.3125 31.2812 14.7552 31.2865 15.2031 31.2969C15.651 31.3073 16.0938 31.3125 16.5312 31.3125C17.0521 31.3125 17.5417 31.224 18 31.0469C18.4583 30.8594 18.8594 30.6042 19.2031 30.2812C19.5469 29.9479 19.8177 29.5573 20.0156 29.1094C20.2135 28.651 20.3125 28.1562 20.3125 27.625Z" fill="#A89D3C"/>
<path fill-rule="evenodd" clip-rule="evenodd" d="M21.9006 33.169C21.1871 33.8341 20.3526 34.3478 19.4082 34.7137L19.398 34.7176C18.4453 35.0749 17.435 35.25 16.375 35.25C15.1345 35.25 13.8992 35.229 12.669 35.1869C11.4444 35.1451 10.2251 35.0927 9.01085 35.0299L8.00205 34.9777L8.31202 29.9665L10.0293 30.0267L10.002 15.5852L8.29194 15.6752L7.9332 10.704L8.89173 10.5996C9.96852 10.4824 11.0505 10.4077 12.1376 10.3756C13.2116 10.3335 14.2908 10.3125 15.375 10.3125C16.4581 10.3125 17.4773 10.4798 18.4227 10.8269C19.3663 11.1733 20.1912 11.682 20.8818 12.3584C21.5837 13.0252 22.1182 13.8332 22.4898 14.7662C22.878 15.7145 23.0625 16.7558 23.0625 17.875C23.0625 18.9864 22.8133 20.0066 22.2816 20.9015L22.2783 20.907C22.0253 21.3266 21.72 21.7092 21.3668 22.056C22.0527 22.5364 22.6315 23.1147 23.0912 23.795C23.8585 24.9045 24.2188 26.2192 24.2188 27.6875C24.2188 28.7895 24.0189 29.8199 23.6023 30.7633C23.195 31.6858 22.627 32.491 21.9006 33.169ZM22.2656 24.3594C21.8322 23.7165 21.2661 23.1713 20.5672 22.7238C20.2582 22.5259 19.9233 22.3472 19.5625 22.1875C19.9011 21.9835 20.2063 21.7604 20.4779 21.5184C20.8581 21.1797 21.1728 20.8038 21.4219 20.3906C21.849 19.6719 22.0625 18.8333 22.0625 17.875C22.0625 16.8646 21.8958 15.9531 21.5625 15.1406C21.2396 14.3281 20.7813 13.6406 20.1875 13.0781C19.6042 12.5052 18.901 12.0677 18.0781 11.7656C17.2552 11.4635 16.3542 11.3125 15.375 11.3125C14.3021 11.3125 13.2344 11.3333 12.1719 11.375C11.1094 11.4062 10.0521 11.4792 9 11.5938L9.21875 14.625L11 14.5312L11.0313 31.0625L9.25 31L9.0625 34.0312C9.39507 34.0485 9.72802 34.0649 10.0614 34.0805C10.9392 34.1216 11.8198 34.1573 12.7031 34.1875C13.9219 34.2292 15.1458 34.25 16.375 34.25C17.3229 34.25 18.2135 34.0938 19.0469 33.7812C19.8802 33.4583 20.6042 33.0104 21.2188 32.4375C21.8438 31.8542 22.3333 31.1615 22.6875 30.3594C23.0417 29.5573 23.2188 28.6667 23.2188 27.6875C23.2188 26.3854 22.901 25.276 22.2656 24.3594ZM17.5429 15.8946L17.537 15.8886C17.1581 15.5033 16.5794 15.25 15.6563 15.25H15.25C15.1156 15.25 14.9773 15.253 14.835 15.259L14.7903 20.0938H15.8955C16.7223 20.0751 17.2543 19.8408 17.6118 19.4897C17.9547 19.1529 18.1875 18.632 18.1875 17.7812C18.1875 16.8581 17.9342 16.2794 17.5489 15.9005L17.5429 15.8946ZM15.9063 21.0938H14.2969C14.1302 21.0938 13.9583 21.0833 13.7813 21.0625L13.8438 14.3125C13.875 14.3021 13.9688 14.2917 14.125 14.2812C14.2917 14.2708 14.474 14.2656 14.6719 14.2656C14.8698 14.2552 15.0625 14.25 15.25 14.25H15.6563C16.7708 14.25 17.6354 14.5625 18.25 15.1875C18.875 15.8021 19.1875 16.6667 19.1875 17.7812C19.1875 18.8229 18.8958 19.6302 18.3125 20.2031C17.7292 20.776 16.9271 21.0729 15.9063 21.0938ZM19.1256 26.3813L19.1208 26.3676C19.0067 26.0481 18.8634 25.8343 18.7126 25.6891L18.7058 25.6825L18.6991 25.6759C18.5218 25.4985 18.3101 25.3609 18.0524 25.2634C17.7429 25.1463 17.3993 25.0592 17.0181 25.006L17.0049 25.0042L16.9919 25.002C16.6128 24.9388 16.2097 24.9062 15.7813 24.9062H15.7704L15.7595 24.906C15.4467 24.8992 15.1338 24.897 14.821 24.8993L14.8666 30.2899C14.9862 30.2919 15.1061 30.2943 15.2264 30.2971C15.6667 30.3074 16.1017 30.3125 16.5313 30.3125C16.9327 30.3125 17.2964 30.2453 17.6306 30.1176C17.9747 29.9756 18.2658 29.7884 18.5126 29.5579C18.7583 29.3183 18.9534 29.0379 19.0992 28.7092C19.2386 28.3849 19.3125 28.0272 19.3125 27.625C19.3125 27.0693 19.2386 26.6706 19.1309 26.3948L19.1256 26.3813ZM20.0156 29.1094C19.8177 29.5573 19.5469 29.9479 19.2031 30.2812C18.8594 30.6042 18.4583 30.8594 18 31.0469C17.5417 31.224 17.0521 31.3125 16.5313 31.3125C16.0938 31.3125 15.651 31.3073 15.2031 31.2969C14.7552 31.2865 14.3125 31.2812 13.875 31.2812L13.8125 23.9062H14.3438C14.5 23.9029 14.6562 23.9006 14.8125 23.8994C15.1354 23.8969 15.4583 23.8992 15.7813 23.9062C16.2604 23.9062 16.7188 23.9427 17.1563 24.0156C17.6042 24.0781 18.0208 24.1823 18.4063 24.3281C18.7917 24.474 19.125 24.6875 19.4063 24.9688C19.6875 25.2396 19.9063 25.5938 20.0625 26.0312C20.2292 26.4583 20.3125 26.9896 20.3125 27.625C20.3125 28.1562 20.2135 28.651 20.0156 29.1094Z" fill="black"/>
<path d="M39.2188 27.6875C39.2188 28.6667 39.0417 29.5573 38.6875 30.3594C38.3333 31.1615 37.8438 31.8542 37.2188 32.4375C36.6042 33.0104 35.8802 33.4583 35.0469 33.7812C34.2135 34.0938 33.3229 34.25 32.375 34.25C31.1458 34.25 29.9219 34.2292 28.7031 34.1875C27.4844 34.1458 26.2708 34.0938 25.0625 34.0312L25.25 31L27.0312 31.0625L27 14.5312L25.2188 14.625L25 11.5938C26.0521 11.4792 27.1094 11.4062 28.1719 11.375C29.2344 11.3333 30.3021 11.3125 31.375 11.3125C32.3542 11.3125 33.2552 11.4635 34.0781 11.7656C34.901 12.0677 35.6042 12.5052 36.1875 13.0781C36.7812 13.6406 37.2396 14.3281 37.5625 15.1406C37.8958 15.9531 38.0625 16.8646 38.0625 17.875C38.0625 18.8333 37.849 19.6719 37.4219 20.3906C36.9948 21.099 36.375 21.6979 35.5625 22.1875C36.7396 22.7083 37.6406 23.4323 38.2656 24.3594C38.901 25.276 39.2188 26.3854 39.2188 27.6875ZM35.1875 17.7812C35.1875 16.6667 34.875 15.8021 34.25 15.1875C33.6354 14.5625 32.7708 14.25 31.6562 14.25C31.5729 14.25 31.4375 14.25 31.25 14.25C31.0625 14.25 30.8698 14.2552 30.6719 14.2656C30.474 14.2656 30.2917 14.2708 30.125 14.2812C29.9688 14.2917 29.875 14.3021 29.8438 14.3125L29.7812 21.0625C29.9583 21.0833 30.1302 21.0938 30.2969 21.0938C30.4635 21.0938 30.6354 21.0938 30.8125 21.0938H31.9062C32.9271 21.0729 33.7292 20.776 34.3125 20.2031C34.8958 19.6302 35.1875 18.8229 35.1875 17.7812ZM36.3125 27.625C36.3125 26.9896 36.2292 26.4583 36.0625 26.0312C35.9062 25.5938 35.6875 25.2396 35.4062 24.9688C35.125 24.6875 34.7917 24.474 34.4062 24.3281C34.0208 24.1823 33.6042 24.0781 33.1562 24.0156C32.7188 23.9427 32.2604 23.9062 31.7812 23.9062C31.3021 23.8958 30.8229 23.8958 30.3438 23.9062H29.8125L29.875 31.2812C30.3125 31.2812 30.7552 31.2865 31.2031 31.2969C31.651 31.3073 32.0938 31.3125 32.5312 31.3125C33.0521 31.3125 33.5417 31.224 34 31.0469C34.4583 30.8594 34.8594 30.6042 35.2031 30.2812C35.5469 29.9479 35.8177 29.5573 36.0156 29.1094C36.2135 28.651 36.3125 28.1562 36.3125 27.625Z" fill="#A89D3C"/>
<path fill-rule="evenodd" clip-rule="evenodd" d="M37.9006 33.169C37.1871 33.8341 36.3526 34.3478 35.4082 34.7137L35.398 34.7176C34.4453 35.0749 33.435 35.25 32.375 35.25C31.1345 35.25 29.8992 35.229 28.669 35.1869C27.4444 35.1451 26.2251 35.0927 25.0108 35.0299L24.002 34.9777L24.312 29.9665L26.0293 30.0267L26.002 15.5852L24.2919 15.6752L23.9332 10.704L24.8917 10.5996C25.9685 10.4824 27.0505 10.4077 28.1376 10.3756C29.2116 10.3335 30.2908 10.3125 31.375 10.3125C32.4581 10.3125 33.4773 10.4798 34.4227 10.8269C35.3663 11.1733 36.1912 11.682 36.8818 12.3584C37.5837 13.0252 38.1182 13.8332 38.4898 14.7662C38.878 15.7145 39.0625 16.7558 39.0625 17.875C39.0625 18.9864 38.8133 20.0066 38.2816 20.9015L38.2783 20.907C38.0253 21.3266 37.72 21.7092 37.3668 22.056C38.0527 22.5364 38.6315 23.1147 39.0912 23.795C39.8585 24.9045 40.2188 26.2192 40.2188 27.6875C40.2188 28.7895 40.0189 29.8199 39.6023 30.7633C39.195 31.6858 38.627 32.491 37.9006 33.169ZM38.2656 24.3594C37.8322 23.7165 37.2661 23.1713 36.5672 22.7238C36.2582 22.5259 35.9233 22.3472 35.5625 22.1875C35.9011 21.9835 36.2063 21.7604 36.4779 21.5184C36.8581 21.1797 37.1728 20.8038 37.4219 20.3906C37.849 19.6719 38.0625 18.8333 38.0625 17.875C38.0625 16.8646 37.8958 15.9531 37.5625 15.1406C37.2396 14.3281 36.7813 13.6406 36.1875 13.0781C35.6042 12.5052 34.901 12.0677 34.0781 11.7656C33.2552 11.4635 32.3542 11.3125 31.375 11.3125C30.3021 11.3125 29.2344 11.3333 28.1719 11.375C27.1094 11.4062 26.0521 11.4792 25 11.5938L25.2188 14.625L27 14.5312L27.0313 31.0625L25.25 31L25.0625 34.0312C25.3951 34.0485 25.728 34.0649 26.0614 34.0805C26.9392 34.1216 27.8198 34.1573 28.7031 34.1875C29.9219 34.2292 31.1458 34.25 32.375 34.25C33.3229 34.25 34.2135 34.0938 35.0469 33.7812C35.8802 33.4583 36.6042 33.0104 37.2188 32.4375C37.8438 31.8542 38.3333 31.1615 38.6875 30.3594C39.0417 29.5573 39.2188 28.6667 39.2188 27.6875C39.2188 26.3854 38.901 25.276 38.2656 24.3594ZM33.5429 15.8946L33.537 15.8886C33.1581 15.5033 32.5794 15.25 31.6563 15.25H31.25C31.1156 15.25 30.9773 15.253 30.835 15.259L30.7903 20.0938H31.8955C32.7223 20.0751 33.2543 19.8408 33.6118 19.4897C33.9547 19.1529 34.1875 18.632 34.1875 17.7812C34.1875 16.8581 33.9342 16.2794 33.5489 15.9005L33.5429 15.8946ZM31.9063 21.0938H30.2969C30.1302 21.0938 29.9583 21.0833 29.7813 21.0625L29.8438 14.3125C29.875 14.3021 29.9688 14.2917 30.125 14.2812C30.2917 14.2708 30.474 14.2656 30.6719 14.2656C30.8698 14.2552 31.0625 14.25 31.25 14.25H31.6563C32.7708 14.25 33.6354 14.5625 34.25 15.1875C34.875 15.8021 35.1875 16.6667 35.1875 17.7812C35.1875 18.8229 34.8958 19.6302 34.3125 20.2031C33.7292 20.776 32.9271 21.0729 31.9063 21.0938ZM35.1256 26.3813L35.1208 26.3676C35.0067 26.0481 34.8634 25.8343 34.7126 25.6891L34.7058 25.6825L34.6991 25.6759C34.5218 25.4985 34.3101 25.3609 34.0524 25.2634C33.7429 25.1463 33.3993 25.0592 33.0181 25.006L33.0049 25.0042L32.9919 25.002C32.6128 24.9388 32.2097 24.9062 31.7813 24.9062H31.7704L31.7595 24.906C31.4467 24.8992 31.1338 24.897 30.821 24.8993L30.8666 30.2899C30.9862 30.2919 31.1061 30.2943 31.2264 30.2971C31.6667 30.3074 32.1017 30.3125 32.5313 30.3125C32.9327 30.3125 33.2964 30.2453 33.6306 30.1176C33.9747 29.9756 34.2658 29.7884 34.5126 29.5579C34.7583 29.3183 34.9534 29.0379 35.0992 28.7092C35.2386 28.3849 35.3125 28.0272 35.3125 27.625C35.3125 27.0693 35.2386 26.6706 35.1309 26.3948L35.1256 26.3813ZM36.0156 29.1094C35.8177 29.5573 35.5469 29.9479 35.2031 30.2812C34.8594 30.6042 34.4583 30.8594 34 31.0469C33.5417 31.224 33.0521 31.3125 32.5313 31.3125C32.0938 31.3125 31.651 31.3073 31.2031 31.2969C30.7552 31.2865 30.3125 31.2812 29.875 31.2812L29.8125 23.9062H30.3438C30.5 23.9029 30.6562 23.9006 30.8125 23.8994C31.1354 23.8969 31.4583 23.8992 31.7813 23.9062C32.2604 23.9062 32.7188 23.9427 33.1563 24.0156C33.6042 24.0781 34.0208 24.1823 34.4063 24.3281C34.7917 24.474 35.125 24.6875 35.4063 24.9688C35.6875 25.2396 35.9063 25.5938 36.0625 26.0312C36.2292 26.4583 36.3125 26.9896 36.3125 27.625C36.3125 28.1562 36.2135 28.651 36.0156 29.1094Z" fill="black"/>
</svg>
