<svg width="150" height="150" viewBox="0 0 150 150" fill="none" xmlns="http://www.w3.org/2000/svg">
<rect width="150" height="150" fill="#E5E5E5"/>
<rect x="45" y="23" width="60" height="115" fill="#DF2F2F"/>
<rect x="65" y="13" width="20" height="10" fill="#DF2F2F"/>
<circle cx="75" cy="71" r="22" fill="#518B53" stroke="#A89D3C" stroke-width="2"/>
<path d="M75.2188 75.6875C75.2188 76.6667 75.0417 77.5573 74.6875 78.3594C74.3333 79.1615 73.8438 79.8542 73.2188 80.4375C72.6042 81.0104 71.8802 81.4583 71.0469 81.7812C70.2135 82.0938 69.3229 82.25 68.375 82.25C67.1458 82.25 65.9219 82.2292 64.7031 82.1875C63.4844 82.1458 62.2708 82.0938 61.0625 82.0312L61.25 79L63.0312 79.0625L63 62.5312L61.2188 62.625L61 59.5938C62.0521 59.4792 63.1094 59.4062 64.1719 59.375C65.2344 59.3333 66.3021 59.3125 67.375 59.3125C68.3542 59.3125 69.2552 59.4635 70.0781 59.7656C70.901 60.0677 71.6042 60.5052 72.1875 61.0781C72.7812 61.6406 73.2396 62.3281 73.5625 63.1406C73.8958 63.9531 74.0625 64.8646 74.0625 65.875C74.0625 66.8333 73.849 67.6719 73.4219 68.3906C72.9948 69.099 72.375 69.6979 71.5625 70.1875C72.7396 70.7083 73.6406 71.4323 74.2656 72.3594C74.901 73.276 75.2188 74.3854 75.2188 75.6875ZM71.1875 65.7812C71.1875 64.6667 70.875 63.8021 70.25 63.1875C69.6354 62.5625 68.7708 62.25 67.6562 62.25C67.5729 62.25 67.4375 62.25 67.25 62.25C67.0625 62.25 66.8698 62.2552 66.6719 62.2656C66.474 62.2656 66.2917 62.2708 66.125 62.2812C65.9688 62.2917 65.875 62.3021 65.8438 62.3125L65.7812 69.0625C65.9583 69.0833 66.1302 69.0938 66.2969 69.0938C66.4635 69.0938 66.6354 69.0938 66.8125 69.0938H67.9062C68.9271 69.0729 69.7292 68.776 70.3125 68.2031C70.8958 67.6302 71.1875 66.8229 71.1875 65.7812ZM72.3125 75.625C72.3125 74.9896 72.2292 74.4583 72.0625 74.0312C71.9062 73.5938 71.6875 73.2396 71.4062 72.9688C71.125 72.6875 70.7917 72.474 70.4062 72.3281C70.0208 72.1823 69.6042 72.0781 69.1562 72.0156C68.7188 71.9427 68.2604 71.9062 67.7812 71.9062C67.3021 71.8958 66.8229 71.8958 66.3438 71.9062H65.8125L65.875 79.2812C66.3125 79.2812 66.7552 79.2865 67.2031 79.2969C67.651 79.3073 68.0938 79.3125 68.5312 79.3125C69.0521 79.3125 69.5417 79.224 70 79.0469C70.4583 78.8594 70.8594 78.6042 71.2031 78.2812C71.5469 77.9479 71.8177 77.5573 72.0156 77.1094C72.2135 76.651 72.3125 76.1562 72.3125 75.625Z" fill="#A89D3C"/>
<path fill-rule="evenodd" clip-rule="evenodd" d="M73.9006 81.169C73.1871 81.8341 72.3526 82.3478 71.4082 82.7137L71.398 82.7176C70.4453 83.0749 69.435 83.25 68.375 83.25C67.1345 83.25 65.8992 83.229 64.669 83.1869C63.4444 83.1451 62.2251 83.0927 61.0108 83.0299L60.002 82.9777L60.312 77.9665L62.0293 78.0267L62.002 63.5852L60.2919 63.6752L59.9332 58.704L60.8917 58.5996C61.9685 58.4824 63.0505 58.4077 64.1376 58.3756C65.2116 58.3335 66.2908 58.3125 67.375 58.3125C68.4581 58.3125 69.4773 58.4798 70.4227 58.8269C71.3663 59.1733 72.1912 59.682 72.8818 60.3584C73.5837 61.0252 74.1182 61.8332 74.4898 62.7662C74.878 63.7145 75.0625 64.7558 75.0625 65.875C75.0625 66.9864 74.8133 68.0066 74.2816 68.9015L74.2783 68.907C74.0253 69.3266 73.72 69.7092 73.3668 70.056C74.0527 70.5364 74.6315 71.1147 75.0912 71.795C75.8585 72.9045 76.2188 74.2192 76.2188 75.6875C76.2188 76.7895 76.0189 77.8199 75.6023 78.7633C75.195 79.6858 74.627 80.491 73.9006 81.169ZM74.2656 72.3594C73.8322 71.7165 73.2661 71.1713 72.5672 70.7238C72.2582 70.5259 71.9233 70.3472 71.5625 70.1875C71.9011 69.9835 72.2063 69.7604 72.4779 69.5184C72.8581 69.1797 73.1728 68.8038 73.4219 68.3906C73.849 67.6719 74.0625 66.8333 74.0625 65.875C74.0625 64.8646 73.8958 63.9531 73.5625 63.1406C73.2396 62.3281 72.7813 61.6406 72.1875 61.0781C71.6042 60.5052 70.901 60.0677 70.0781 59.7656C69.2552 59.4635 68.3542 59.3125 67.375 59.3125C66.3021 59.3125 65.2344 59.3333 64.1719 59.375C63.1094 59.4062 62.0521 59.4792 61 59.5938L61.2188 62.625L63 62.5312L63.0313 79.0625L61.25 79L61.0625 82.0312C61.3951 82.0485 61.728 82.0649 62.0614 82.0805C62.9392 82.1216 63.8198 82.1573 64.7031 82.1875C65.9219 82.2292 67.1458 82.25 68.375 82.25C69.3229 82.25 70.2135 82.0938 71.0469 81.7812C71.8802 81.4583 72.6042 81.0104 73.2188 80.4375C73.8438 79.8542 74.3333 79.1615 74.6875 78.3594C75.0417 77.5573 75.2188 76.6667 75.2188 75.6875C75.2188 74.3854 74.901 73.276 74.2656 72.3594ZM69.5429 63.8946L69.537 63.8886C69.1581 63.5033 68.5794 63.25 67.6563 63.25H67.25C67.1156 63.25 66.9773 63.253 66.835 63.259L66.7903 68.0938H67.8955C68.7223 68.0751 69.2543 67.8408 69.6118 67.4897C69.9547 67.1529 70.1875 66.632 70.1875 65.7812C70.1875 64.8581 69.9342 64.2794 69.5489 63.9005L69.5429 63.8946ZM67.9063 69.0938H66.2969C66.1302 69.0938 65.9583 69.0833 65.7813 69.0625L65.8438 62.3125C65.875 62.3021 65.9688 62.2917 66.125 62.2812C66.2917 62.2708 66.474 62.2656 66.6719 62.2656C66.8698 62.2552 67.0625 62.25 67.25 62.25H67.6563C68.7708 62.25 69.6354 62.5625 70.25 63.1875C70.875 63.8021 71.1875 64.6667 71.1875 65.7812C71.1875 66.8229 70.8958 67.6302 70.3125 68.2031C69.7292 68.776 68.9271 69.0729 67.9063 69.0938ZM71.1256 74.3813L71.1208 74.3676C71.0067 74.0481 70.8634 73.8343 70.7126 73.6891L70.7058 73.6825L70.6991 73.6759C70.5218 73.4985 70.3101 73.3609 70.0524 73.2634C69.7429 73.1463 69.3993 73.0592 69.0181 73.006L69.0049 73.0042L68.9919 73.002C68.6128 72.9388 68.2097 72.9062 67.7813 72.9062H67.7704L67.7595 72.906C67.4467 72.8992 67.1338 72.897 66.821 72.8993L66.8666 78.2899C66.9862 78.2919 67.1061 78.2943 67.2264 78.2971C67.6667 78.3074 68.1017 78.3125 68.5313 78.3125C68.9327 78.3125 69.2964 78.2453 69.6306 78.1176C69.9747 77.9756 70.2658 77.7884 70.5126 77.5579C70.7583 77.3183 70.9534 77.0379 71.0992 76.7092C71.2386 76.3849 71.3125 76.0272 71.3125 75.625C71.3125 75.0693 71.2386 74.6706 71.1309 74.3948L71.1256 74.3813ZM72.0156 77.1094C71.8177 77.5573 71.5469 77.9479 71.2031 78.2812C70.8594 78.6042 70.4583 78.8594 70 79.0469C69.5417 79.224 69.0521 79.3125 68.5313 79.3125C68.0938 79.3125 67.651 79.3073 67.2031 79.2969C66.7552 79.2865 66.3125 79.2812 65.875 79.2812L65.8125 71.9062H66.3438C66.5 71.9029 66.6562 71.9006 66.8125 71.8994C67.1354 71.8969 67.4583 71.8992 67.7813 71.9062C68.2604 71.9062 68.7188 71.9427 69.1563 72.0156C69.6042 72.0781 70.0208 72.1823 70.4063 72.3281C70.7917 72.474 71.125 72.6875 71.4063 72.9688C71.6875 73.2396 71.9063 73.5938 72.0625 74.0312C72.2292 74.4583 72.3125 74.9896 72.3125 75.625C72.3125 76.1562 72.2135 76.651 72.0156 77.1094Z" fill="black"/>
<path d="M91.2188 75.6875C91.2188 76.6667 91.0417 77.5573 90.6875 78.3594C90.3333 79.1615 89.8438 79.8542 89.2188 80.4375C88.6042 81.0104 87.8802 81.4583 87.0469 81.7812C86.2135 82.0938 85.3229 82.25 84.375 82.25C83.1458 82.25 81.9219 82.2292 80.7031 82.1875C79.4844 82.1458 78.2708 82.0938 77.0625 82.0312L77.25 79L79.0312 79.0625L79 62.5312L77.2188 62.625L77 59.5938C78.0521 59.4792 79.1094 59.4062 80.1719 59.375C81.2344 59.3333 82.3021 59.3125 83.375 59.3125C84.3542 59.3125 85.2552 59.4635 86.0781 59.7656C86.901 60.0677 87.6042 60.5052 88.1875 61.0781C88.7812 61.6406 89.2396 62.3281 89.5625 63.1406C89.8958 63.9531 90.0625 64.8646 90.0625 65.875C90.0625 66.8333 89.849 67.6719 89.4219 68.3906C88.9948 69.099 88.375 69.6979 87.5625 70.1875C88.7396 70.7083 89.6406 71.4323 90.2656 72.3594C90.901 73.276 91.2188 74.3854 91.2188 75.6875ZM87.1875 65.7812C87.1875 64.6667 86.875 63.8021 86.25 63.1875C85.6354 62.5625 84.7708 62.25 83.6562 62.25C83.5729 62.25 83.4375 62.25 83.25 62.25C83.0625 62.25 82.8698 62.2552 82.6719 62.2656C82.474 62.2656 82.2917 62.2708 82.125 62.2812C81.9688 62.2917 81.875 62.3021 81.8438 62.3125L81.7812 69.0625C81.9583 69.0833 82.1302 69.0938 82.2969 69.0938C82.4635 69.0938 82.6354 69.0938 82.8125 69.0938H83.9062C84.9271 69.0729 85.7292 68.776 86.3125 68.2031C86.8958 67.6302 87.1875 66.8229 87.1875 65.7812ZM88.3125 75.625C88.3125 74.9896 88.2292 74.4583 88.0625 74.0312C87.9062 73.5938 87.6875 73.2396 87.4062 72.9688C87.125 72.6875 86.7917 72.474 86.4062 72.3281C86.0208 72.1823 85.6042 72.0781 85.1562 72.0156C84.7188 71.9427 84.2604 71.9062 83.7812 71.9062C83.3021 71.8958 82.8229 71.8958 82.3438 71.9062H81.8125L81.875 79.2812C82.3125 79.2812 82.7552 79.2865 83.2031 79.2969C83.651 79.3073 84.0938 79.3125 84.5312 79.3125C85.0521 79.3125 85.5417 79.224 86 79.0469C86.4583 78.8594 86.8594 78.6042 87.2031 78.2812C87.5469 77.9479 87.8177 77.5573 88.0156 77.1094C88.2135 76.651 88.3125 76.1562 88.3125 75.625Z" fill="#A89D3C"/>
<path fill-rule="evenodd" clip-rule="evenodd" d="M89.9006 81.169C89.1871 81.8341 88.3526 82.3478 87.4082 82.7137L87.398 82.7176C86.4453 83.0749 85.435 83.25 84.375 83.25C83.1345 83.25 81.8992 83.229 80.669 83.1869C79.4444 83.1451 78.2251 83.0927 77.0108 83.0299L76.002 82.9777L76.312 77.9665L78.0293 78.0267L78.002 63.5852L76.2919 63.6752L75.9332 58.704L76.8917 58.5996C77.9685 58.4824 79.0505 58.4077 80.1376 58.3756C81.2116 58.3335 82.2908 58.3125 83.375 58.3125C84.4581 58.3125 85.4773 58.4798 86.4227 58.8269C87.3663 59.1733 88.1912 59.682 88.8818 60.3584C89.5837 61.0252 90.1182 61.8332 90.4898 62.7662C90.878 63.7145 91.0625 64.7558 91.0625 65.875C91.0625 66.9864 90.8133 68.0066 90.2816 68.9015L90.2783 68.907C90.0253 69.3266 89.72 69.7092 89.3668 70.056C90.0527 70.5364 90.6315 71.1147 91.0912 71.795C91.8585 72.9045 92.2188 74.2192 92.2188 75.6875C92.2188 76.7895 92.0189 77.8199 91.6023 78.7633C91.195 79.6858 90.627 80.491 89.9006 81.169ZM90.2656 72.3594C89.8322 71.7165 89.2661 71.1713 88.5672 70.7238C88.2582 70.5259 87.9233 70.3472 87.5625 70.1875C87.9011 69.9835 88.2063 69.7604 88.4779 69.5184C88.8581 69.1797 89.1728 68.8038 89.4219 68.3906C89.849 67.6719 90.0625 66.8333 90.0625 65.875C90.0625 64.8646 89.8958 63.9531 89.5625 63.1406C89.2396 62.3281 88.7813 61.6406 88.1875 61.0781C87.6042 60.5052 86.901 60.0677 86.0781 59.7656C85.2552 59.4635 84.3542 59.3125 83.375 59.3125C82.3021 59.3125 81.2344 59.3333 80.1719 59.375C79.1094 59.4062 78.0521 59.4792 77 59.5938L77.2188 62.625L79 62.5312L79.0313 79.0625L77.25 79L77.0625 82.0312C77.3951 82.0485 77.728 82.0649 78.0614 82.0805C78.9392 82.1216 79.8198 82.1573 80.7031 82.1875C81.9219 82.2292 83.1458 82.25 84.375 82.25C85.3229 82.25 86.2135 82.0938 87.0469 81.7812C87.8802 81.4583 88.6042 81.0104 89.2188 80.4375C89.8438 79.8542 90.3333 79.1615 90.6875 78.3594C91.0417 77.5573 91.2188 76.6667 91.2188 75.6875C91.2188 74.3854 90.901 73.276 90.2656 72.3594ZM85.5429 63.8946L85.537 63.8886C85.1581 63.5033 84.5794 63.25 83.6563 63.25H83.25C83.1156 63.25 82.9773 63.253 82.835 63.259L82.7903 68.0938H83.8955C84.7223 68.0751 85.2543 67.8408 85.6118 67.4897C85.9547 67.1529 86.1875 66.632 86.1875 65.7812C86.1875 64.8581 85.9342 64.2794 85.5489 63.9005L85.5429 63.8946ZM83.9063 69.0938H82.2969C82.1302 69.0938 81.9583 69.0833 81.7813 69.0625L81.8438 62.3125C81.875 62.3021 81.9688 62.2917 82.125 62.2812C82.2917 62.2708 82.474 62.2656 82.6719 62.2656C82.8698 62.2552 83.0625 62.25 83.25 62.25H83.6563C84.7708 62.25 85.6354 62.5625 86.25 63.1875C86.875 63.8021 87.1875 64.6667 87.1875 65.7812C87.1875 66.8229 86.8958 67.6302 86.3125 68.2031C85.7292 68.776 84.9271 69.0729 83.9063 69.0938ZM87.1256 74.3813L87.1208 74.3676C87.0067 74.0481 86.8634 73.8343 86.7126 73.6891L86.7058 73.6825L86.6991 73.6759C86.5218 73.4985 86.3101 73.3609 86.0524 73.2634C85.7429 73.1463 85.3993 73.0592 85.0181 73.006L85.0049 73.0042L84.9919 73.002C84.6128 72.9388 84.2097 72.9062 83.7813 72.9062H83.7704L83.7595 72.906C83.4467 72.8992 83.1338 72.897 82.821 72.8993L82.8666 78.2899C82.9862 78.2919 83.1061 78.2943 83.2264 78.2971C83.6667 78.3074 84.1017 78.3125 84.5313 78.3125C84.9327 78.3125 85.2964 78.2453 85.6306 78.1176C85.9747 77.9756 86.2658 77.7884 86.5126 77.5579C86.7583 77.3183 86.9534 77.0379 87.0992 76.7092C87.2386 76.3849 87.3125 76.0272 87.3125 75.625C87.3125 75.0693 87.2386 74.6706 87.1309 74.3948L87.1256 74.3813ZM88.0156 77.1094C87.8177 77.5573 87.5469 77.9479 87.2031 78.2812C86.8594 78.6042 86.4583 78.8594 86 79.0469C85.5417 79.224 85.0521 79.3125 84.5313 79.3125C84.0938 79.3125 83.651 79.3073 83.2031 79.2969C82.7552 79.2865 82.3125 79.2812 81.875 79.2812L81.8125 71.9062H82.3438C82.5 71.9029 82.6562 71.9006 82.8125 71.8994C83.1354 71.8969 83.4583 71.8992 83.7813 71.9062C84.2604 71.9062 84.7188 71.9427 85.1563 72.0156C85.6042 72.0781 86.0208 72.1823 86.4063 72.3281C86.7917 72.474 87.125 72.6875 87.4063 72.9688C87.6875 73.2396 87.9063 73.5938 88.0625 74.0312C88.2292 74.4583 88.3125 74.9896 88.3125 75.625C88.3125 76.1562 88.2135 76.651 88.0156 77.1094Z" fill="black"/>
<path d="M69.1719 130.719C68.849 130.719 68.5729 130.604 68.3438 130.375C68.1146 130.146 68 129.87 68 129.547C68 129.339 68.0469 129.151 68.1406 128.984C69.2031 127.047 70.5729 125.333 72.25 123.844C72.8646 123.292 73.5573 122.76 74.3281 122.25C75.099 121.74 75.8385 121.193 76.5469 120.609C77.2552 120.016 77.8385 119.333 78.2969 118.562C78.7552 117.792 78.9844 116.875 78.9844 115.812C78.9844 114.979 78.7969 114.224 78.4219 113.547C78.0469 112.87 77.5365 112.333 76.8906 111.938C76.2552 111.542 75.5312 111.344 74.7188 111.344C73.7083 111.344 72.8438 111.661 72.125 112.297C71.4062 112.932 70.9583 113.667 70.7812 114.5C70.7292 114.76 70.5885 114.984 70.3594 115.172C70.1406 115.359 69.8958 115.453 69.625 115.453C69.2708 115.453 68.974 115.302 68.7344 115C68.4948 114.698 68.4115 114.37 68.4844 114.016C68.6719 113.12 69.0469 112.292 69.6094 111.531C70.1823 110.771 70.9062 110.161 71.7812 109.703C72.6562 109.234 73.6458 109 74.75 109C76.0208 109 77.151 109.302 78.1406 109.906C79.1302 110.5 79.9062 111.312 80.4688 112.344C81.0417 113.365 81.3281 114.521 81.3281 115.812C81.3281 117.146 81.0729 118.292 80.5625 119.25C80.0625 120.208 79.4167 121.047 78.625 121.766C77.8333 122.484 77.0104 123.146 76.1562 123.75C75.3021 124.354 74.5208 124.969 73.8125 125.594C72.8854 126.417 72.0469 127.344 71.2969 128.375H81.2344C81.5573 128.375 81.8333 128.49 82.0625 128.719C82.2917 128.948 82.4062 129.224 82.4062 129.547C82.4062 129.87 82.2917 130.146 82.0625 130.375C81.8333 130.604 81.5573 130.719 81.2344 130.719H69.1719Z" fill="white"/>
</svg>
